<mxfile host="app.diagrams.net" modified="2022-07-11T08:58:33.216Z" agent="5.0 (Windows NT 10.0; Win64; x64) AppleWebKit/537.36 (KHTML, like Gecko) Chrome/103.0.5060.114 Safari/537.36 Edg/103.0.1264.49" etag="YcdA0CmNUcPsJI5ktNPT" version="20.0.4" type="github">
  <diagram id="MDBjMfwWh7g7bpdJX_q5" name="Page-1">
    <mxGraphModel dx="128" dy="75" grid="1" gridSize="4" guides="1" tooltips="1" connect="1" arrows="1" fold="1" page="1" pageScale="1" pageWidth="850" pageHeight="1100" math="0" shadow="0">
      <root>
        <mxCell id="0" />
        <mxCell id="1" parent="0" />
        <mxCell id="rYzWOXeL8mr_90LLxClm-1" value="" style="endArrow=none;html=1;rounded=0;strokeWidth=1;" edge="1" parent="1">
          <mxGeometry width="50" height="50" relative="1" as="geometry">
            <mxPoint x="60" y="240" as="sourcePoint" />
            <mxPoint x="165" y="240" as="targetPoint" />
          </mxGeometry>
        </mxCell>
        <mxCell id="rYzWOXeL8mr_90LLxClm-5" value="" style="endArrow=none;html=1;rounded=0;" edge="1" parent="1">
          <mxGeometry width="50" height="50" relative="1" as="geometry">
            <mxPoint x="60" y="308" as="sourcePoint" />
            <mxPoint x="165" y="308" as="targetPoint" />
          </mxGeometry>
        </mxCell>
        <mxCell id="rYzWOXeL8mr_90LLxClm-6" value="" style="endArrow=none;html=1;rounded=0;" edge="1" parent="1">
          <mxGeometry width="50" height="50" relative="1" as="geometry">
            <mxPoint x="60" y="240" as="sourcePoint" />
            <mxPoint x="60" y="308" as="targetPoint" />
          </mxGeometry>
        </mxCell>
        <mxCell id="rYzWOXeL8mr_90LLxClm-7" value="" style="endArrow=none;html=1;rounded=0;" edge="1" parent="1">
          <mxGeometry width="50" height="50" relative="1" as="geometry">
            <mxPoint x="165" y="240" as="sourcePoint" />
            <mxPoint x="165" y="308" as="targetPoint" />
          </mxGeometry>
        </mxCell>
      </root>
    </mxGraphModel>
  </diagram>
</mxfile>
